<?xml version="1.0" encoding="utf-8"?>
<!-- Generator: Adobe Illustrator 16.0.0, SVG Export Plug-In . SVG Version: 6.00 Build 0)  -->
<!DOCTYPE svg PUBLIC "-//W3C//DTD SVG 1.1//EN" "http://www.w3.org/Graphics/SVG/1.1/DTD/svg11.dtd" [
	<!ENTITY ns_flows "http://ns.adobe.com/Flows/1.0/">
	<!ENTITY ns_extend "http://ns.adobe.com/Extensibility/1.0/">
	<!ENTITY ns_ai "http://ns.adobe.com/AdobeIllustrator/10.0/">
	<!ENTITY ns_graphs "http://ns.adobe.com/Graphs/1.0/">
	<!ENTITY st0 "display:none;fill:#999999;">
	<!ENTITY st1 "opacity:0.6;fill:#FFFFFF;">
	<!ENTITY st2 "display:none;opacity:0.1;">
	<!ENTITY st3 "display:none;fill:#FFFFFF;">
	<!ENTITY st4 "display:none;clip-path:url(#SVGID_4_);fill:#FFFFFF;">
	<!ENTITY st5 "display:inline;opacity:0.6;fill:#FFFFFF;">
	<!ENTITY st6 "display:inline;fill:#808080;stroke:#FFFFFF;stroke-miterlimit:10;">
	<!ENTITY st7 "fill:#E59A13;">
	<!ENTITY st8 "fill:#E5E5E5;">
	<!ENTITY st9 "display:inline;fill:#FFE200;stroke:#FFFFFF;stroke-miterlimit:10;">
	<!ENTITY st10 "fill:#4D4D4D;">
	<!ENTITY st11 "display:inline;fill:#7AC943;stroke:#FFFFFF;stroke-miterlimit:10;">
	<!ENTITY st12 "fill:#808080;">
	<!ENTITY st13 "display:inline;opacity:0.3;fill:#FFFFFF;">
	<!ENTITY st14 "clip-path:url(#SVGID_8_);fill:#FFFFFF;">
	<!ENTITY st15 "display:none;clip-path:url(#SVGID_4_);fill:none;">
	<!ENTITY st16 "fill:#B2B2B2;">
	<!ENTITY st17 "display:inline;fill:#FF931E;stroke:#FFFFFF;stroke-miterlimit:10;">
	<!ENTITY st18 "display:inline;fill:#009245;stroke:#FFFFFF;stroke-miterlimit:10;">
	<!ENTITY st19 "font-size:38.2956;">
	<!ENTITY st20 "display:inline;fill:#5A9DFF;">
	<!ENTITY st21 "display:inline;fill:#B3B3B3;stroke:#FFFFFF;stroke-miterlimit:10;">
	<!ENTITY st22 "display:inline;fill:#FF1D25;stroke:#FFFFFF;stroke-miterlimit:10;">
	<!ENTITY st23 "font-size:28.2052;">
	<!ENTITY st24 "fill:#F2F2F2;">
	<!ENTITY st25 "fill:#5A9DFF;">
	<!ENTITY st26 "font-size:42.5166;">
	<!ENTITY st27 "display:inline;fill:#999999;">
	<!ENTITY st28 "clip-path:url(#SVGID_2_);">
	<!ENTITY st29 "clip-path:url(#SVGID_4_);">
	<!ENTITY st30 "display:inline;fill:#0071BC;stroke:#FFFFFF;stroke-miterlimit:10;">
	<!ENTITY st31 "display:inline;fill:#FFFFFF;">
	<!ENTITY st32 "fill:#2B2D30;">
	<!ENTITY st33 "fill:#989898;">
	<!ENTITY st34 "fill:#999999;">
	<!ENTITY st35 "display:inline;fill:#FF0000;stroke:#FFFFFF;stroke-miterlimit:10;">
	<!ENTITY st36 "display:inline;fill:#666666;stroke:#FFFFFF;stroke-miterlimit:10;">
	<!ENTITY st37 "opacity:0.1;">
	<!ENTITY st38 "fill:#FF7D1E;">
	<!ENTITY st39 "fill:#FFFFFF;">
	<!ENTITY st40 "display:inline;fill:#FBB03B;stroke:#FFFFFF;stroke-miterlimit:10;">
	<!ENTITY st41 "fill:#666666;">
	<!ENTITY st42 "fill:#CBCBCB;">
	<!ENTITY st43 "fill:#CC6119;">
	<!ENTITY st44 "fill:#CCCCCC;">
	<!ENTITY st45 "display:inline;">
	<!ENTITY st46 "display:inline;fill:#CCCCCC;stroke:#FFFFFF;stroke-miterlimit:10;">
	<!ENTITY st47 "display:inline;fill:#29ABE2;stroke:#FFFFFF;stroke-miterlimit:10;">
	<!ENTITY st48 "font-family:'FuturaStd-ExtraBoldOblique';">
	<!ENTITY st49 "display:none;clip-path:url(#SVGID_4_);fill:#B3B3B3;">
	<!ENTITY st50 "clip-path:url(#SVGID_8_);fill:#E6E6E6;">
	<!ENTITY st51 "display:inline;fill:#FFFFFF;stroke:#FFFFFF;stroke-miterlimit:10;">
	<!ENTITY st52 "display:none;fill:#CCCCCC;stroke:#FFFFFF;stroke-miterlimit:10;">
	<!ENTITY st53 "display:inline;opacity:0.3;clip-path:url(#SVGID_6_);">
	<!ENTITY st54 "clip-path:url(#SVGID_8_);fill:#B3B3B3;">
	<!ENTITY st55 "font-size:12;">
	<!ENTITY st56 "font-size:16;">
	<!ENTITY st57 "display:none;">
	<!ENTITY st58 "display:none;fill:#F2F2F2;">
	<!ENTITY st59 "display:none;fill:#5A9DFF;">
	<!ENTITY st60 "display:inline;fill:#4D4D4D;stroke:#FFFFFF;stroke-miterlimit:10;">
	<!ENTITY st61 "display:inline;stroke:#FFFFFF;stroke-miterlimit:10;">
]>
<svg version="1.1" id="Livello_1" xmlns:x="&ns_extend;" xmlns:i="&ns_ai;" xmlns:graph="&ns_graphs;"
	 xmlns="http://www.w3.org/2000/svg" xmlns:xlink="http://www.w3.org/1999/xlink" xmlns:a="http://ns.adobe.com/AdobeSVGViewerExtensions/3.0/"
	 x="0px" y="0px" width="1280px" height="800px" viewBox="0 0 1280 800" style="enable-background:new 0 0 1280 800;"
	 xml:space="preserve">
<path style="&st59;" d="M0,0.002v799.995h1280.001V0.002H0z M1087.01,353.126c0,47.22-38.28,85.5-85.5,85.5H268.491
	c-47.221,0-85.5-38.28-85.5-85.5v-0.001c0-47.22,38.279-85.499,85.5-85.499h733.019
	C1048.729,267.626,1087.01,305.905,1087.01,353.126L1087.01,353.126z"/>
<g id="Layer_2" style="&st57;">
	<rect x="498.994" y="267.626" style="&st20;" width="8.007" height="171"/>
	<rect x="773.001" y="267.626" style="&st20;" width="8.006" height="171"/>
</g>
<g id="XMLID_2_" style="&st2;">
	<g style="&st45;">
		<polygon style="&st10;" points="1280.001,571.235 1280.001,800 1089.901,681.183 		"/>
		<polygon style="&st8;" points="1280.001,334.727 1280.001,571.235 1089.901,681.183 		"/>
		<polygon style="&st12;" points="1280.001,0.004 1280.001,334.727 1169.338,223.829 		"/>
		<polygon style="&st16;" points="1280.001,0.004 1169.338,223.829 1125.562,179.957 		"/>
		<polygon style="&st8;" points="1280.001,0.004 1125.562,179.957 1088.125,0.004 		"/>
		<polygon style="&st16;" points="1280.001,334.727 1089.901,681.183 1029.733,506.204 1049.949,465.323 		"/>
		<polygon style="&st12;" points="1280.001,334.727 1049.949,465.323 1122.147,319.283 		"/>
		<polygon style="&st12;" points="1280.001,334.727 1122.147,319.283 1169.338,223.829 		"/>
		<polygon style="&st12;" points="1280.001,800 884.479,800 1089.901,681.183 		"/>
		<polygon style="&st16;" points="1169.338,223.829 1122.147,319.283 1078.851,315.052 1125.562,179.957 		"/>
		<polygon style="&st42;" points="1088.125,0.004 1125.562,179.957 721.264,0.004 		"/>
		<polygon style="&st16;" points="1125.562,179.957 1078.851,315.052 1055.938,312.803 		"/>
		<polygon style="&st16;" points="1125.562,179.957 1055.938,312.803 960.001,303.423 		"/>
		<polygon style="&st42;" points="1125.562,179.957 960.001,303.423 767.686,221.685 		"/>
		<polygon style="&st16;" points="1125.562,179.957 767.686,221.685 721.264,0.004 		"/>
		<polygon style="&st12;" points="1122.147,319.283 1049.949,465.323 1021.268,481.602 1078.851,315.052 		"/>
		<polygon style="&st8;" points="1029.733,506.204 1089.901,681.183 977.841,611.154 		"/>
		<polygon style="&st33;" points="1089.901,681.183 884.479,800 977.841,611.154 		"/>
		<polygon style="&st12;" points="1078.851,315.052 1021.268,481.602 999.964,419.631 1055.938,312.803 		"/>
		<polygon style="&st12;" points="1055.938,312.803 999.964,419.631 960.001,303.423 		"/>
		<polygon style="&st16;" points="1049.949,465.323 1029.733,506.204 1021.268,481.602 		"/>
		<polygon style="&st16;" points="1021.268,481.602 1029.733,506.204 977.841,611.154 918.9,574.308 999.964,419.631 		"/>
		<polygon style="&st16;" points="960.001,303.423 999.964,419.631 918.9,574.308 918.811,574.262 		"/>
		<polygon style="&st16;" points="977.841,611.154 884.479,800 918.761,574.563 918.9,574.308 		"/>
		<polygon style="&st33;" points="960.001,303.423 918.811,574.262 748.049,467.538 		"/>
		<polygon style="&st16;" points="960.001,303.423 748.049,467.538 748.049,467.526 767.686,221.685 		"/>
		<polygon style="&st32;" points="918.9,574.308 918.761,574.563 918.811,574.262 		"/>
		<polygon style="&st12;" points="748.049,467.538 918.811,574.262 918.761,574.563 839.335,726.134 640.001,400.002 
			748.049,467.526 		"/>
		<polygon style="&st10;" points="918.761,574.563 884.479,800 839.335,726.134 		"/>
		<polygon style="&st10;" points="839.335,726.134 884.479,800 800.62,800 		"/>
		<polygon style="&st10;" points="839.335,726.134 800.62,800 574.521,800 640.001,400.002 		"/>
		<polygon style="&st42;" points="721.264,0.004 767.686,221.685 509.062,80.63 		"/>
		<polygon style="&st41;" points="767.686,221.685 748.049,467.526 640.001,400.002 		"/>
		<polygon style="&st16;" points="767.686,221.685 640.001,400.002 509.062,80.63 		"/>
		<polygon style="&st8;" points="721.264,0.004 509.062,80.63 508.932,80.677 194.901,200.003 237.47,0.004 		"/>
		<polygon style="&st12;" points="509.062,80.63 640.001,400.002 445.1,662.481 		"/>
		<polygon style="&st41;" points="640.001,400.002 574.521,800 445.1,662.481 		"/>
		<polygon style="&st33;" points="574.521,800 49.008,800 261.629,467.538 445.1,662.481 		"/>
		<polygon style="&st41;" points="509.062,80.63 445.1,662.481 261.629,467.538 509.052,80.642 		"/>
		<polygon style="&st44;" points="509.062,80.63 509.052,80.642 508.932,80.677 		"/>
		<polygon style="&st12;" points="509.052,80.642 261.629,467.538 49.008,800 152.333,400.002 		"/>
		<polygon style="&st44;" points="509.052,80.642 152.333,400.002 194.901,200.003 508.932,80.677 		"/>
		<polygon style="&st39;" points="237.47,0.004 194.901,200.003 152.333,400.002 140.942,130.855 		"/>
		<polygon style="&st8;" points="237.47,0.004 140.942,130.855 0,321.915 0,0.004 		"/>
		<polygon style="&st42;" points="140.942,130.855 152.333,400.002 0,321.915 		"/>
		<polygon style="&st16;" points="152.333,400.002 49.008,800 0,800 0,469.485 		"/>
		<polygon style="&st8;" points="152.333,400.002 0,469.485 0,321.915 		"/>
	</g>
</g>
<g style="&st57;">
	<path style="&st31;" d="M95.082,41.449c1.977,0,3.579-1.603,3.579-3.579s-1.603-3.578-3.579-3.578s-3.579,1.602-3.579,3.578
		S93.105,41.449,95.082,41.449"/>
	<path style="&st31;" d="M108.206,51.47c3.607-1.334,4.638-4.516,2.759-6.516c-1.88-2.002-6.76-3.214-11.185-0.607
		c-4.374,2.576-5.035,8.073-3.597,10.844c-0.769,0.69-1.581,1.02-2.133,1.039c-0.476,0.016-0.658-0.288-0.726-0.57
		c-0.053-0.222-0.034-0.455,0.039-0.671l2.629-7.868c0.635-1.9-0.779-3.864-2.782-3.864c-1.664,0-3.146,1.054-3.69,2.626
		c-0.648,1.87-1.441,4.347-1.744,6.073c-0.147,0.847-0.218,1.739-0.168,2.593c-0.918,1.131-2.04,1.657-2.74,1.682
		c-0.477,0.016-0.658-0.288-0.727-0.57c-0.053-0.222-0.033-0.455,0.04-0.671l2.478-7.352h1.418l1.542-4.381h-1.482l1.369-4.062
		h-3.819c-1.333,3.547-5.638,4.062-5.638,4.062l-1.468,4.381h1.169c-0.481,1.494-0.942,3.095-1.156,4.318
		c-0.126,0.724-0.195,1.481-0.183,2.219c-0.914,1.146-1.969,2.034-2.575,2.056c-0.879,0.029-0.758-1.031-0.758-1.031l4.001-11.942
		h-6.82c0,0-0.318,0.825-0.74,2.016c-0.397-1.093-1.295-2.379-3.321-2.379c-3.516,0-6.547,3.637-7.638,6.274
		c-0.471,1.135-0.956,3.086-0.904,4.94l-0.609,1.351c-0.112,0.247-0.359,0.407-0.632,0.407c-0.477,0-0.811-0.471-0.652-0.922
		c0.547-1.554,1.63-4.641,2.009-5.776c0.516-1.546,1.122-6.274-3.303-6.274c-2.985,0-4.962,1.901-5.934,3.14
		c-0.301-1.66-1.323-3.14-4.009-3.14c-6.426,0-6.668,5.759-6.668,5.759l2.605,0.061l0.552-1.686
		c0.107-0.229,0.338-0.376,0.591-0.376c0.45,0,0.766,0.444,0.618,0.868l-3.761,10.814l7.489-0.87l2.173-6.882
		c0,0,0.241-0.739,0.395-1.758c0.633-0.795,1.467-1.709,1.917-1.657c0.787,0.091,0.605,0.879,0.605,0.879s-1,2.91-1.758,5.274
		c-0.758,2.363-0.182,5.516,4.031,5.516c2.754,0,4.42-0.906,5.243-1.534c0.659,0.925,1.729,1.534,3.396,1.534
		c2.497,0,4.265-1.889,5.461-4.002c0.203,2.169,1.256,4.002,3.965,4.002c2.586,0,4.532-1.25,5.545-2.086
		c0.562,1.232,1.639,2.086,3.488,2.086c2.682,0,4.677-1.346,5.654-2.178c0.551,1.281,1.634,2.178,3.529,2.178
		c2.686,0,4.683-1.351,5.658-2.182c2.522,2.599,7.725,3.995,12.965-1.473c0.333-0.348,0.312-0.902-0.045-1.225
		c-0.327-0.296-0.827-0.295-1.149,0.006c-0.907,0.844-2.85,2.357-5.123,2.357c-1.762,0-2.13-1.854-1.83-3.914
		C103.185,52.464,105.583,52.439,108.206,51.47 M66.925,54.713c-1.092-0.484,0.182-3.576,0.696-5.122
		c0.516-1.546,1.213-3.456,2.606-3.122c0.428,0.112,0.582,0.434,0.619,0.771c-0.17,0.517-0.34,1.051-0.499,1.584L68.5,53.652
		C68.5,53.652,68.016,55.198,66.925,54.713 M106.934,47.637c-0.255,1.204-1.943,2.501-4.294,2.49
		c0.293-0.837,0.656-1.603,1.037-2.173C105.296,45.529,107.206,46.35,106.934,47.637"/>
</g>
<g>
	<defs>
		<path id="SVGID_3_" d="M1001.51,438.626H268.491c-47.221,0-85.5-38.28-85.5-85.5v-0.001c0-47.22,38.279-85.499,85.5-85.499
			h733.019c47.22,0,85.5,38.279,85.5,85.499v0.001C1087.01,400.346,1048.729,438.626,1001.51,438.626z"/>
	</defs>
	<clipPath id="SVGID_2_">
		<use xlink:href="#SVGID_3_"  style="overflow:visible;"/>
	</clipPath>
	<rect x="182.991" y="267.626" style="display:none;clip-path:url(#SVGID_2_);fill:none;" width="316.003" height="171"/>
	<rect x="507.001" y="267.626" style="display:none;clip-path:url(#SVGID_2_);fill:none;" width="266" height="171"/>
	<rect x="781.007" y="267.626" style="display:none;clip-path:url(#SVGID_2_);fill:none;" width="306.003" height="171"/>
	<g style="&st28;">
		<rect x="182.991" y="357.626" style="&st24;" width="316.003" height="81"/>
		<rect x="507.001" y="357.626" style="&st24;" width="266" height="81"/>
		<rect x="781.007" y="357.626" style="&st24;" width="306.003" height="81"/>
	</g>
	<rect x="182.991" y="267.626" style="display:none;clip-path:url(#SVGID_2_);fill:#B3B3B3;" width="316.003" height="7"/>
	<rect x="507.001" y="267.626" style="display:none;clip-path:url(#SVGID_2_);fill:#B3B3B3;" width="266" height="7"/>
	<rect x="781.007" y="267.626" style="display:none;clip-path:url(#SVGID_2_);fill:#B3B3B3;" width="306.003" height="7"/>
	<rect x="182.991" y="431.626" style="display:none;clip-path:url(#SVGID_2_);fill:#FFFFFF;" width="316.003" height="7"/>
	<rect x="507.001" y="431.626" style="display:none;clip-path:url(#SVGID_2_);fill:#FFFFFF;" width="266" height="7"/>
	<rect x="781.007" y="431.626" style="display:none;clip-path:url(#SVGID_2_);fill:#FFFFFF;" width="306.003" height="7"/>
</g>
<g id="dummy_text" style="&st57;">
	<defs>
		<rect id="SVGID_5_" x="232.994" y="267.626" width="814.013" height="171"/>
	</defs>
	<clipPath id="SVGID_4_" style="&st45;">
		<use xlink:href="#SVGID_5_"  style="overflow:visible;"/>
	</clipPath>
	<g style="display:inline;opacity:0.3;clip-path:url(#SVGID_4_);">
		<text transform="matrix(1 0 0 1 321.5723 439.3086)" style="&st25; &st48; &st19;">IPSUM</text>
	</g>
	<g style="display:inline;opacity:0.3;clip-path:url(#SVGID_4_);">
		<text transform="matrix(1 0 0 1 321.5723 297.3105)" style="&st25; &st48; &st19;">IPSUM</text>
	</g>
	<g style="display:inline;opacity:0.3;clip-path:url(#SVGID_4_);">
		<text transform="matrix(1 0 0 1 604.5723 262.3086)" style="&st25; &st48; &st19;">IPSUM</text>
	</g>
	<g style="display:inline;opacity:0.3;clip-path:url(#SVGID_4_);">
		<text transform="matrix(1 0 0 1 870.8506 322.3125)" style="&st25; &st48; &st19;">LOREM</text>
	</g>
	<g style="display:inline;opacity:0.3;clip-path:url(#SVGID_4_);">
		<text transform="matrix(1 0 0 1 591.5908 409.3076)" style="&st25; &st48; &st19;">DOLOR</text>
	</g>
	<g style="display:inline;opacity:0.3;clip-path:url(#SVGID_4_);">
		<text transform="matrix(1 0 0 1 868.5908 469.3105)" style="&st25; &st48; &st19;">DOLOR</text>
	</g>
</g>
<text transform="matrix(1 0 0 1 1141.1729 54.666)" style="&st3; &st48; &st55;">NATIE/LAB/WORDS</text>
<g style="&st57;">
	<text transform="matrix(1 0 0 1 534.8799 600.1758)" style="&st31; &st48; &st26;">HIT THE BAR SPACE </text>
	<text transform="matrix(1 0 0 1 588.0049 644.7412)" style="&st5; &st48; &st23;">AGAIN, PLEASE</text>
	<text transform="matrix(1 0 0 1 600.6738 674.7412)" style="&st13; &st48; &st56;">LAST TIME, THANKS</text>
</g>
<g style="&st57;">
	<text transform="matrix(1 0 0 1 318.8506 370.3105)" style="&st20; &st48; &st19;">LOREM</text>
	<g style="&st45;">
		<text transform="matrix(1 0 0 1 604.5723 340.3086)" style="&st25; &st48; &st19;">IPSUM</text>
	</g>
	<g style="&st45;">
		<text transform="matrix(1 0 0 1 868.5908 400.3125)" style="&st25; &st48; &st19;">DOLOR</text>
	</g>
</g>
</svg>
