<?xml version="1.0" encoding="utf-8"?>
<!-- Generator: Adobe Illustrator 16.0.0, SVG Export Plug-In . SVG Version: 6.00 Build 0)  -->
<!DOCTYPE svg PUBLIC "-//W3C//DTD SVG 1.1//EN" "http://www.w3.org/Graphics/SVG/1.1/DTD/svg11.dtd" [
	<!ENTITY ns_flows "http://ns.adobe.com/Flows/1.0/">
	<!ENTITY ns_extend "http://ns.adobe.com/Extensibility/1.0/">
	<!ENTITY ns_ai "http://ns.adobe.com/AdobeIllustrator/10.0/">
	<!ENTITY ns_graphs "http://ns.adobe.com/Graphs/1.0/">
	<!ENTITY st0 "display:none;opacity:0.1;">
	<!ENTITY st1 "display:none;fill:#FFFFFF;">
	<!ENTITY st2 "fill:#E5E5E5;">
	<!ENTITY st3 "fill:#4D4D4D;">
	<!ENTITY st4 "fill:#808080;">
	<!ENTITY st5 "fill:#B2B2B2;">
	<!ENTITY st6 "display:inline;clip-path:url(#SVGID_2_);fill:#B3B3B3;">
	<!ENTITY st7 "fill:#5A9DFF;">
	<!ENTITY st8 "display:inline;fill:#FFFFFF;">
	<!ENTITY st9 "fill:#2B2D30;">
	<!ENTITY st10 "display:inline;clip-path:url(#SVGID_2_);fill:#F2F2F2;stroke:#FFFFFF;stroke-miterlimit:10;">
	<!ENTITY st11 "fill:#989898;">
	<!ENTITY st12 "fill:#FFFFFF;">
	<!ENTITY st13 "fill:#666666;">
	<!ENTITY st14 "fill:#CBCBCB;">
	<!ENTITY st15 "fill:#CCCCCC;">
	<!ENTITY st16 "display:inline;">
	<!ENTITY st17 "display:inline;clip-path:url(#SVGID_2_);fill:#FFFFFF;stroke:#FFFFFF;stroke-miterlimit:10;">
	<!ENTITY st18 "display:none;">
	<!ENTITY st19 "display:inline;clip-path:url(#SVGID_2_);fill:none;stroke:#FFFFFF;stroke-miterlimit:10;">
]>
<svg version="1.1" id="Livello_1" xmlns:x="&ns_extend;" xmlns:i="&ns_ai;" xmlns:graph="&ns_graphs;"
	 xmlns="http://www.w3.org/2000/svg" xmlns:xlink="http://www.w3.org/1999/xlink" xmlns:a="http://ns.adobe.com/AdobeSVGViewerExtensions/3.0/"
	 x="0px" y="0px" width="950px" height="260px" viewBox="0 0 950 260" style="enable-background:new 0 0 950 260;"
	 xml:space="preserve">
<path style="&st7;" d="M0,0v260h950V0H0z M925.988,131.496c0,47.22-38.28,85.5-85.5,85.5H107.47c-47.221,0-85.5-38.28-85.5-85.5
	v-0.001c0-47.22,38.279-85.499,85.5-85.499h733.019C887.708,45.996,925.988,84.275,925.988,131.496L925.988,131.496z"/>
<g id="Layer_2">
	<g>
		<rect x="333.994" y="44.5" style="&st7;" width="8.007" height="171"/>
		<rect x="608.001" y="44.5" style="&st7;" width="8.006" height="171"/>
	</g>
</g>
<g id="XMLID_2_" style="&st0;">
	<g style="&st16;">
		<polygon style="&st3;" points="1116.99,349.605 1116.99,578.37 926.891,459.553 		"/>
		<polygon style="&st2;" points="1116.99,113.097 1116.99,349.605 926.891,459.553 		"/>
		<polygon style="&st4;" points="1116.99,-221.626 1116.99,113.097 1006.327,2.199 		"/>
		<polygon style="&st5;" points="1116.99,-221.626 1006.327,2.199 962.551,-41.673 		"/>
		<polygon style="&st2;" points="1116.99,-221.626 962.551,-41.673 925.114,-221.626 		"/>
		<polygon style="&st5;" points="1116.99,113.097 926.891,459.553 866.723,284.574 886.938,243.693 		"/>
		<polygon style="&st4;" points="1116.99,113.097 886.938,243.693 959.137,97.653 		"/>
		<polygon style="&st4;" points="1116.99,113.097 959.137,97.653 1006.327,2.199 		"/>
		<polygon style="&st4;" points="1116.99,578.37 721.468,578.37 926.891,459.553 		"/>
		<polygon style="&st5;" points="1006.327,2.199 959.137,97.653 915.84,93.422 962.551,-41.673 		"/>
		<polygon style="&st14;" points="925.114,-221.626 962.551,-41.673 558.253,-221.626 		"/>
		<polygon style="&st5;" points="962.551,-41.673 915.84,93.422 892.928,91.173 		"/>
		<polygon style="&st5;" points="962.551,-41.673 892.928,91.173 796.99,81.793 		"/>
		<polygon style="&st14;" points="962.551,-41.673 796.99,81.793 604.675,0.055 		"/>
		<polygon style="&st5;" points="962.551,-41.673 604.675,0.055 558.253,-221.626 		"/>
		<polygon style="&st4;" points="959.137,97.653 886.938,243.693 858.257,259.972 915.84,93.422 		"/>
		<polygon style="&st2;" points="866.723,284.574 926.891,459.553 814.83,389.524 		"/>
		<polygon style="&st11;" points="926.891,459.553 721.468,578.37 814.83,389.524 		"/>
		<polygon style="&st4;" points="915.84,93.422 858.257,259.972 836.953,198.001 892.928,91.173 		"/>
		<polygon style="&st4;" points="892.928,91.173 836.953,198.001 796.99,81.793 		"/>
		<polygon style="&st5;" points="886.938,243.693 866.723,284.574 858.257,259.972 		"/>
		<polygon style="&st5;" points="858.257,259.972 866.723,284.574 814.83,389.524 755.89,352.678 836.953,198.001 		"/>
		<polygon style="&st5;" points="796.99,81.793 836.953,198.001 755.89,352.678 755.8,352.632 		"/>
		<polygon style="&st5;" points="814.83,389.524 721.468,578.37 755.75,352.934 755.89,352.678 		"/>
		<polygon style="&st11;" points="796.99,81.793 755.8,352.632 585.038,245.908 		"/>
		<polygon style="&st5;" points="796.99,81.793 585.038,245.908 585.038,245.896 604.675,0.055 		"/>
		<polygon style="&st9;" points="755.89,352.678 755.75,352.934 755.8,352.632 		"/>
		<polygon style="&st4;" points="585.038,245.908 755.8,352.632 755.75,352.934 676.324,504.504 476.99,178.372 585.038,245.896 		
			"/>
		<polygon style="&st3;" points="755.75,352.934 721.468,578.37 676.324,504.504 		"/>
		<polygon style="&st3;" points="676.324,504.504 721.468,578.37 637.609,578.37 		"/>
		<polygon style="&st3;" points="676.324,504.504 637.609,578.37 411.511,578.37 476.99,178.372 		"/>
		<polygon style="&st14;" points="558.253,-221.626 604.675,0.055 346.051,-141 		"/>
		<polygon style="&st13;" points="604.675,0.055 585.038,245.896 476.99,178.372 		"/>
		<polygon style="&st5;" points="604.675,0.055 476.99,178.372 346.051,-141 		"/>
		<polygon style="&st2;" points="558.253,-221.626 346.051,-141 345.921,-140.953 31.891,-21.627 74.459,-221.626 		"/>
		<polygon style="&st4;" points="346.051,-141 476.99,178.372 282.089,440.852 		"/>
		<polygon style="&st13;" points="476.99,178.372 411.511,578.37 282.089,440.852 		"/>
		<polygon style="&st11;" points="411.511,578.37 -114.003,578.37 98.618,245.908 282.089,440.852 		"/>
		<polygon style="&st13;" points="346.051,-141 282.089,440.852 98.618,245.908 346.041,-140.988 		"/>
		<polygon style="&st15;" points="346.051,-141 346.041,-140.988 345.921,-140.953 		"/>
		<polygon style="&st4;" points="346.041,-140.988 98.618,245.908 -114.003,578.37 -10.678,178.372 		"/>
		<polygon style="&st15;" points="346.041,-140.988 -10.678,178.372 31.891,-21.627 345.921,-140.953 		"/>
		<polygon style="&st12;" points="74.459,-221.626 31.891,-21.627 -10.678,178.372 -22.068,-90.774 		"/>
		<polygon style="&st2;" points="74.459,-221.626 -22.068,-90.774 -163.011,100.285 -163.011,-221.626 		"/>
		<polygon style="&st14;" points="-22.068,-90.774 -10.678,178.372 -163.011,100.285 		"/>
		<polygon style="&st5;" points="-10.678,178.372 -114.003,578.37 -163.011,578.37 -163.011,247.855 		"/>
		<polygon style="&st2;" points="-10.678,178.372 -163.011,247.855 -163.011,100.285 		"/>
	</g>
	<g style="&st16;">
	</g>
</g>
<g id="logo" style="&st18;">
	<path style="&st8;" d="M-67.929-180.181c1.977,0,3.579-1.603,3.579-3.579s-1.603-3.578-3.579-3.578s-3.579,1.602-3.579,3.578
		S-69.905-180.181-67.929-180.181"/>
	<path style="&st8;" d="M-54.805-170.16c3.607-1.334,4.638-4.516,2.759-6.516c-1.88-2.002-6.76-3.214-11.185-0.607
		c-4.374,2.576-5.035,8.073-3.597,10.844c-0.769,0.69-1.581,1.02-2.133,1.039c-0.476,0.016-0.658-0.288-0.726-0.57
		c-0.053-0.222-0.034-0.455,0.039-0.671l2.629-7.868c0.635-1.9-0.779-3.864-2.782-3.864c-1.664,0-3.146,1.054-3.69,2.626
		c-0.648,1.87-1.441,4.347-1.744,6.073c-0.147,0.847-0.218,1.739-0.168,2.593c-0.918,1.131-2.04,1.657-2.74,1.682
		c-0.477,0.016-0.658-0.288-0.727-0.57c-0.053-0.222-0.033-0.455,0.04-0.671l2.478-7.352h1.418l1.542-4.381h-1.482l1.369-4.062
		h-3.819c-1.333,3.547-5.638,4.062-5.638,4.062l-1.468,4.381h1.169c-0.481,1.494-0.942,3.095-1.156,4.318
		c-0.126,0.724-0.195,1.481-0.183,2.219c-0.914,1.146-1.969,2.034-2.575,2.056c-0.879,0.029-0.758-1.031-0.758-1.031l4.001-11.942
		h-6.82c0,0-0.318,0.825-0.74,2.016c-0.397-1.093-1.295-2.379-3.321-2.379c-3.516,0-6.547,3.637-7.638,6.274
		c-0.471,1.135-0.956,3.086-0.904,4.94l-0.609,1.351c-0.112,0.247-0.359,0.407-0.632,0.407c-0.477,0-0.811-0.471-0.652-0.922
		c0.547-1.554,1.63-4.641,2.009-5.776c0.516-1.546,1.122-6.274-3.303-6.274c-2.985,0-4.962,1.901-5.934,3.14
		c-0.301-1.66-1.323-3.14-4.009-3.14c-6.426,0-6.668,5.759-6.668,5.759l2.605,0.061l0.552-1.686
		c0.107-0.229,0.338-0.376,0.591-0.376c0.45,0,0.766,0.444,0.618,0.868l-3.761,10.814l7.489-0.87l2.173-6.882
		c0,0,0.241-0.739,0.395-1.758c0.633-0.795,1.467-1.709,1.917-1.657c0.787,0.091,0.605,0.879,0.605,0.879s-1,2.91-1.758,5.274
		c-0.758,2.363-0.182,5.516,4.031,5.516c2.754,0,4.42-0.906,5.243-1.534c0.659,0.925,1.729,1.534,3.396,1.534
		c2.497,0,4.265-1.889,5.461-4.002c0.203,2.169,1.256,4.002,3.965,4.002c2.586,0,4.532-1.25,5.545-2.086
		c0.562,1.232,1.639,2.086,3.488,2.086c2.682,0,4.677-1.346,5.654-2.178c0.551,1.281,1.634,2.178,3.529,2.178
		c2.686,0,4.683-1.351,5.658-2.182c2.522,2.599,7.725,3.995,12.965-1.473c0.333-0.348,0.312-0.902-0.045-1.225
		c-0.327-0.296-0.827-0.295-1.149,0.006c-0.907,0.844-2.85,2.357-5.123,2.357c-1.762,0-2.13-1.854-1.83-3.914
		C-59.826-169.166-57.428-169.19-54.805-170.16 M-96.086-166.917c-1.092-0.484,0.182-3.576,0.696-5.122
		c0.516-1.546,1.213-3.456,2.606-3.122c0.428,0.112,0.582,0.434,0.619,0.771c-0.17,0.517-0.34,1.051-0.499,1.584l-1.848,4.829
		C-94.511-167.978-94.995-166.432-96.086-166.917 M-56.077-173.993c-0.255,1.204-1.943,2.501-4.294,2.49
		c0.293-0.837,0.656-1.603,1.037-2.173C-57.715-176.101-55.805-175.28-56.077-173.993"/>
</g>
<path style="&st1;" d="M838.499,216.996H105.48c-47.221,0-85.5-38.28-85.5-85.5v-0.001c0-47.22,38.279-85.499,85.5-85.499h733.019
	c47.22,0,85.5,38.279,85.5,85.499v0.001C923.999,178.716,885.719,216.996,838.499,216.996z"/>
<g id="shading" style="&st18;">
	<defs>
		<path id="SVGID_1_" d="M838.499,216.996H105.48c-47.221,0-85.5-38.28-85.5-85.5v-0.001c0-47.22,38.279-85.499,85.5-85.499h733.019
			c47.22,0,85.5,38.279,85.5,85.499v0.001C923.999,178.716,885.719,216.996,838.499,216.996z"/>
	</defs>
	<clipPath id="SVGID_2_" style="&st16;">
		<use xlink:href="#SVGID_1_"  style="overflow:visible;"/>
	</clipPath>
	<rect x="19.98" y="45.996" style="&st19;" width="316.003" height="171"/>
	<rect x="343.99" y="45.996" style="&st19;" width="266" height="171"/>
	<rect x="617.996" y="45.996" style="&st19;" width="306.003" height="171"/>
	<rect x="19.98" y="135.996" style="&st10;" width="316.003" height="81"/>
	<rect x="343.99" y="135.996" style="&st10;" width="266" height="81"/>
	<rect x="617.996" y="135.996" style="&st10;" width="306.003" height="81"/>
	<rect x="19.98" y="45.996" style="&st6;" width="324.01" height="7"/>
	<rect x="343.99" y="45.996" style="&st6;" width="269.543" height="7"/>
	<rect x="607.033" y="45.996" style="&st6;" width="316.966" height="7"/>
	<rect x="19.98" y="209.996" style="&st17;" width="316.003" height="7"/>
	<rect x="343.99" y="209.996" style="&st17;" width="266" height="7"/>
	<rect x="617.996" y="209.996" style="&st17;" width="306.003" height="7"/>
	<use xlink:href="#SVGID_1_"  style="display:inline;overflow:visible;fill:none;stroke:#FFFFFF;stroke-miterlimit:10;"/>
</g>
<text transform="matrix(1 0 0 1 978.1621 -166.9639)" style="&st1; font-family:'FuturaStd-ExtraBoldOblique'; font-size:12;">NATIE/LAB/WORDS</text>
<g style="&st18;">
	<text transform="matrix(1 0 0 1 371.8691 378.5459)" style="&st8; font-family:'FuturaStd-ExtraBoldOblique'; font-size:42.5166;">HIT THE BAR SPACE </text>
	
		<text transform="matrix(1 0 0 1 424.9941 423.1113)" style="display:inline;opacity:0.6;fill:#FFFFFF; font-family:'FuturaStd-ExtraBoldOblique'; font-size:28.2052;">AGAIN, PLEASE</text>
	
		<text transform="matrix(1 0 0 1 437.6631 453.1113)" style="display:inline;opacity:0.3;fill:#FFFFFF; font-family:'FuturaStd-ExtraBoldOblique'; font-size:16;">LAST TIME, THANKS</text>
</g>
</svg>
