<?xml version="1.0" encoding="utf-8"?>
<!-- Generator: Adobe Illustrator 16.0.0, SVG Export Plug-In . SVG Version: 6.00 Build 0)  -->
<!DOCTYPE svg PUBLIC "-//W3C//DTD SVG 1.1//EN" "http://www.w3.org/Graphics/SVG/1.1/DTD/svg11.dtd">
<svg version="1.1" id="Livello_1" xmlns="http://www.w3.org/2000/svg" xmlns:xlink="http://www.w3.org/1999/xlink" x="0px" y="0px"
	 width="930px" height="310px" viewBox="0 0 930 310" enable-background="new 0 0 930 310" xml:space="preserve">
<path fill="#5A9DFF" d="M0,0v310h930V0H0z M917.009,155c0,47.22-38.28,85.5-85.5,85.5H98.49c-47.221,0-85.5-38.28-85.5-85.5v-0.001
	c0-47.22,38.279-85.499,85.5-85.499h733.019C878.729,69.5,917.009,107.779,917.009,155L917.009,155z"/>
<g id="Layer_2">
	<rect x="328.993" y="69.5" fill="#5A9DFF" width="8.007" height="171"/>
	<rect x="603" y="69.5" fill="#5A9DFF" width="8.006" height="171"/>
</g>
<g id="XMLID_2_" display="none" opacity="0.1">
	<g display="inline">
		<polygon fill="#4D4D4D" points="1110,373.109 1110,601.874 919.9,483.057 		"/>
		<polygon fill="#E5E5E5" points="1110,136.601 1110,373.109 919.9,483.057 		"/>
		<polygon fill="#808080" points="1110,-198.122 1110,136.601 999.337,25.703 		"/>
		<polygon fill="#B2B2B2" points="1110,-198.122 999.337,25.703 955.561,-18.169 		"/>
		<polygon fill="#E5E5E5" points="1110,-198.122 955.561,-18.169 918.124,-198.122 		"/>
		<polygon fill="#B2B2B2" points="1110,136.601 919.9,483.057 859.732,308.078 879.948,267.197 		"/>
		<polygon fill="#808080" points="1110,136.601 879.948,267.197 952.146,121.157 		"/>
		<polygon fill="#808080" points="1110,136.601 952.146,121.157 999.337,25.703 		"/>
		<polygon fill="#808080" points="1110,601.874 714.478,601.874 919.9,483.057 		"/>
		<polygon fill="#B2B2B2" points="999.337,25.703 952.146,121.157 908.85,116.926 955.561,-18.169 		"/>
		<polygon fill="#CBCBCB" points="918.124,-198.122 955.561,-18.169 551.263,-198.122 		"/>
		<polygon fill="#B2B2B2" points="955.561,-18.169 908.85,116.926 885.938,114.677 		"/>
		<polygon fill="#B2B2B2" points="955.561,-18.169 885.938,114.677 790,105.297 		"/>
		<polygon fill="#CBCBCB" points="955.561,-18.169 790,105.297 597.685,23.559 		"/>
		<polygon fill="#B2B2B2" points="955.561,-18.169 597.685,23.559 551.263,-198.122 		"/>
		<polygon fill="#808080" points="952.146,121.157 879.948,267.197 851.267,283.476 908.85,116.926 		"/>
		<polygon fill="#E5E5E5" points="859.732,308.078 919.9,483.057 807.84,413.028 		"/>
		<polygon fill="#989898" points="919.9,483.057 714.478,601.874 807.84,413.028 		"/>
		<polygon fill="#808080" points="908.85,116.926 851.267,283.476 829.963,221.505 885.938,114.677 		"/>
		<polygon fill="#808080" points="885.938,114.677 829.963,221.505 790,105.297 		"/>
		<polygon fill="#B2B2B2" points="879.948,267.197 859.732,308.078 851.267,283.476 		"/>
		<polygon fill="#B2B2B2" points="851.267,283.476 859.732,308.078 807.84,413.028 748.899,376.182 829.963,221.505 		"/>
		<polygon fill="#B2B2B2" points="790,105.297 829.963,221.505 748.899,376.182 748.81,376.136 		"/>
		<polygon fill="#B2B2B2" points="807.84,413.028 714.478,601.874 748.76,376.438 748.899,376.182 		"/>
		<polygon fill="#989898" points="790,105.297 748.81,376.136 578.048,269.412 		"/>
		<polygon fill="#B2B2B2" points="790,105.297 578.048,269.412 578.048,269.4 597.685,23.559 		"/>
		<polygon fill="#2B2D30" points="748.899,376.182 748.76,376.438 748.81,376.136 		"/>
		<polygon fill="#808080" points="578.048,269.412 748.81,376.136 748.76,376.438 669.334,528.008 470,201.876 578.048,269.4 		"/>
		<polygon fill="#4D4D4D" points="748.76,376.438 714.478,601.874 669.334,528.008 		"/>
		<polygon fill="#4D4D4D" points="669.334,528.008 714.478,601.874 630.619,601.874 		"/>
		<polygon fill="#4D4D4D" points="669.334,528.008 630.619,601.874 404.521,601.874 470,201.876 		"/>
		<polygon fill="#CBCBCB" points="551.263,-198.122 597.685,23.559 339.061,-117.496 		"/>
		<polygon fill="#666666" points="597.685,23.559 578.048,269.4 470,201.876 		"/>
		<polygon fill="#B2B2B2" points="597.685,23.559 470,201.876 339.061,-117.496 		"/>
		<polygon fill="#E5E5E5" points="551.263,-198.122 339.061,-117.496 338.931,-117.449 24.9,1.877 67.469,-198.122 		"/>
		<polygon fill="#808080" points="339.061,-117.496 470,201.876 275.099,464.355 		"/>
		<polygon fill="#666666" points="470,201.876 404.521,601.874 275.099,464.355 		"/>
		<polygon fill="#989898" points="404.521,601.874 -120.993,601.874 91.628,269.412 275.099,464.355 		"/>
		<polygon fill="#666666" points="339.061,-117.496 275.099,464.355 91.628,269.412 339.051,-117.484 		"/>
		<polygon fill="#CCCCCC" points="339.061,-117.496 339.051,-117.484 338.931,-117.449 		"/>
		<polygon fill="#808080" points="339.051,-117.484 91.628,269.412 -120.993,601.874 -17.668,201.876 		"/>
		<polygon fill="#CCCCCC" points="339.051,-117.484 -17.668,201.876 24.9,1.877 338.931,-117.449 		"/>
		<polygon fill="#FFFFFF" points="67.469,-198.122 24.9,1.877 -17.668,201.876 -29.059,-67.271 		"/>
		<polygon fill="#E5E5E5" points="67.469,-198.122 -29.059,-67.271 -170.001,123.789 -170.001,-198.122 		"/>
		<polygon fill="#CBCBCB" points="-29.059,-67.271 -17.668,201.876 -170.001,123.789 		"/>
		<polygon fill="#B2B2B2" points="-17.668,201.876 -120.993,601.874 -170.001,601.874 -170.001,271.359 		"/>
		<polygon fill="#E5E5E5" points="-17.668,201.876 -170.001,271.359 -170.001,123.789 		"/>
	</g>
	<g display="inline">
	</g>
</g>
<g id="logo" display="none">
	<path display="inline" fill="#FFFFFF" d="M-74.919-156.677c1.977,0,3.579-1.603,3.579-3.579s-1.603-3.578-3.579-3.578
		s-3.579,1.602-3.579,3.578S-76.896-156.677-74.919-156.677"/>
	<path display="inline" fill="#FFFFFF" d="M-61.795-146.656c3.607-1.334,4.638-4.516,2.759-6.516
		c-1.88-2.002-6.76-3.214-11.185-0.607c-4.374,2.576-5.035,8.073-3.597,10.844c-0.769,0.69-1.581,1.02-2.133,1.039
		c-0.476,0.016-0.658-0.288-0.726-0.57c-0.053-0.222-0.034-0.455,0.039-0.671l2.629-7.868c0.635-1.9-0.779-3.864-2.782-3.864
		c-1.664,0-3.146,1.054-3.69,2.626c-0.648,1.87-1.441,4.347-1.744,6.073c-0.147,0.847-0.218,1.739-0.168,2.593
		c-0.918,1.131-2.04,1.657-2.74,1.682c-0.477,0.016-0.658-0.288-0.727-0.57c-0.053-0.222-0.033-0.455,0.04-0.671l2.478-7.352h1.418
		l1.542-4.381h-1.482l1.369-4.062h-3.819c-1.333,3.547-5.638,4.062-5.638,4.062l-1.468,4.381h1.169
		c-0.481,1.494-0.942,3.095-1.156,4.318c-0.126,0.724-0.195,1.481-0.183,2.219c-0.914,1.146-1.969,2.034-2.575,2.056
		c-0.879,0.029-0.758-1.031-0.758-1.031l4.001-11.942h-6.82c0,0-0.318,0.825-0.74,2.016c-0.397-1.093-1.295-2.379-3.321-2.379
		c-3.516,0-6.547,3.637-7.638,6.274c-0.471,1.135-0.956,3.086-0.904,4.94l-0.609,1.351c-0.112,0.247-0.359,0.407-0.632,0.407
		c-0.477,0-0.811-0.471-0.652-0.922c0.547-1.554,1.63-4.641,2.009-5.776c0.516-1.546,1.122-6.274-3.303-6.274
		c-2.985,0-4.962,1.901-5.934,3.14c-0.301-1.66-1.323-3.14-4.009-3.14c-6.426,0-6.668,5.759-6.668,5.759l2.605,0.061l0.552-1.686
		c0.107-0.229,0.338-0.376,0.591-0.376c0.45,0,0.766,0.444,0.618,0.868l-3.761,10.814l7.489-0.87l2.173-6.882
		c0,0,0.241-0.739,0.395-1.758c0.633-0.795,1.467-1.709,1.917-1.657c0.787,0.091,0.605,0.879,0.605,0.879s-1,2.91-1.758,5.274
		c-0.758,2.363-0.182,5.516,4.031,5.516c2.754,0,4.42-0.906,5.243-1.534c0.659,0.925,1.729,1.534,3.396,1.534
		c2.497,0,4.265-1.889,5.461-4.002c0.203,2.169,1.256,4.002,3.965,4.002c2.586,0,4.532-1.25,5.545-2.086
		c0.562,1.232,1.639,2.086,3.488,2.086c2.682,0,4.677-1.346,5.654-2.178c0.551,1.281,1.634,2.178,3.529,2.178
		c2.686,0,4.683-1.351,5.658-2.182c2.522,2.599,7.725,3.995,12.965-1.473c0.333-0.348,0.312-0.902-0.045-1.225
		c-0.327-0.296-0.827-0.295-1.149,0.006c-0.907,0.844-2.85,2.357-5.123,2.357c-1.762,0-2.13-1.854-1.83-3.914
		C-66.816-145.662-64.418-145.687-61.795-146.656 M-103.076-143.413c-1.092-0.484,0.182-3.576,0.696-5.122
		c0.516-1.546,1.213-3.456,2.606-3.122c0.428,0.112,0.582,0.434,0.619,0.771c-0.17,0.517-0.34,1.051-0.499,1.584l-1.848,4.829
		C-101.501-144.474-101.985-142.928-103.076-143.413 M-63.067-150.489c-0.255,1.204-1.943,2.501-4.294,2.49
		c0.293-0.837,0.656-1.603,1.037-2.173C-64.705-152.597-62.795-151.776-63.067-150.489"/>
</g>
<g id="shading" display="none">
	<defs>
		<path id="SVGID_1_" d="M831.509,240.5H98.49c-47.221,0-85.5-38.28-85.5-85.5v-0.001c0-47.22,38.279-85.499,85.5-85.499h733.019
			c47.22,0,85.5,38.279,85.5,85.499V155C917.009,202.22,878.729,240.5,831.509,240.5z"/>
	</defs>
	<clipPath id="SVGID_2_" display="inline">
		<use xlink:href="#SVGID_1_"  overflow="visible"/>
	</clipPath>
	<rect x="12.99" y="69.5" display="inline" clip-path="url(#SVGID_2_)" fill="none" width="316.003" height="171"/>
	<rect x="337" y="69.5" display="inline" clip-path="url(#SVGID_2_)" fill="none" width="266" height="171"/>
	<rect x="611.006" y="69.5" display="inline" clip-path="url(#SVGID_2_)" fill="none" width="306.003" height="171"/>
	<g display="inline" clip-path="url(#SVGID_2_)">
		<rect x="12.99" y="159.5" fill="#F2F2F2" width="316.003" height="81"/>
		<rect x="337" y="159.5" fill="#F2F2F2" width="266" height="81"/>
		<rect x="611.006" y="159.5" fill="#F2F2F2" width="306.003" height="81"/>
	</g>
	<rect x="12.99" y="69.5" display="inline" clip-path="url(#SVGID_2_)" fill="#B3B3B3" width="316.003" height="7"/>
	<rect x="337" y="69.5" display="inline" clip-path="url(#SVGID_2_)" fill="#B3B3B3" width="266" height="7"/>
	<rect x="611.006" y="69.5" display="inline" clip-path="url(#SVGID_2_)" fill="#B3B3B3" width="306.003" height="7"/>
	<rect x="12.99" y="233.5" display="inline" clip-path="url(#SVGID_2_)" fill="#FFFFFF" width="316.003" height="7"/>
	<rect x="337" y="233.5" display="inline" clip-path="url(#SVGID_2_)" fill="#FFFFFF" width="266" height="7"/>
	<rect x="611.006" y="233.5" display="inline" clip-path="url(#SVGID_2_)" fill="#FFFFFF" width="306.003" height="7"/>
</g>
<text transform="matrix(1 0 0 1 971.1719 -143.46)" display="none" fill="#FFFFFF" font-family="'FuturaStd-ExtraBoldOblique'" font-size="12">NATIE/LAB/WORDS</text>
<g display="none">
	
		<text transform="matrix(1 0 0 1 364.8789 402.0498)" display="inline" fill="#FFFFFF" font-family="'FuturaStd-ExtraBoldOblique'" font-size="42.5166">HIT THE BAR SPACE </text>
	
		<text transform="matrix(1 0 0 1 418.0039 446.6152)" display="inline" opacity="0.6" fill="#FFFFFF" font-family="'FuturaStd-ExtraBoldOblique'" font-size="28.2052">AGAIN, PLEASE</text>
	
		<text transform="matrix(1 0 0 1 430.6729 476.6152)" display="inline" opacity="0.3" fill="#FFFFFF" font-family="'FuturaStd-ExtraBoldOblique'" font-size="16">LAST TIME, THANKS</text>
</g>
</svg>
